<svg version="1.1" id="Layer_1" xmlns="http://www.w3.org/2000/svg" xmlns:xlink="http://www.w3.org/1999/xlink" x="0px" y="0px"
	 width="100%" viewBox="0 0 1024 1024" enable-background="new 0 0 1024 1024" xml:space="preserve">
<path fill="#000000" opacity="1.000000" stroke="none" 
	d="
M479.000397,851.249390 
	C414.008423,851.153198 349.516510,851.045044 285.024536,850.972107 
	C278.360199,850.964539 271.691040,851.364502 265.032440,851.212097 
	C259.070557,851.075562 253.813049,845.861023 253.715714,840.534729 
	C253.624161,835.525330 258.704559,830.947083 264.822418,830.588074 
	C269.472626,830.315125 274.129303,829.879944 278.778931,829.927246 
	C287.602264,830.017029 296.429016,830.273499 305.241302,830.718994 
	C309.357025,830.927063 310.735504,829.477051 310.728546,825.311096 
	C310.639160,771.817566 310.676239,718.323792 310.761383,664.830139 
	C310.766235,661.772644 309.922150,660.092407 306.875153,658.864441 
	C284.511566,649.852112 275.357178,625.058350 283.637512,603.838318 
	C287.901031,592.912292 296.100403,586.246826 306.805878,582.735291 
	C311.047882,581.343933 312.078705,579.484436 311.806641,575.345398 
	C310.855774,560.878845 310.813568,546.390747 311.683716,531.907166 
	C312.406891,519.870239 315.749634,508.326538 318.218994,496.617065 
	C318.727844,494.204010 319.158783,491.774536 319.656525,489.192291 
	C313.671265,489.192291 308.107178,489.119476 302.545563,489.205688 
	C284.341400,489.487793 270.915771,477.218323 269.594391,458.925446 
	C268.393219,442.296783 268.188843,425.660248 269.508881,409.024109 
	C269.535187,408.692291 269.551575,408.358032 269.544495,408.025513 
	C269.387634,400.667297 269.388153,400.587585 276.756714,400.707153 
	C293.410461,400.977417 310.063690,401.296722 326.714996,401.686188 
	C330.302399,401.770111 332.838104,401.423218 332.715668,396.723907 
	C332.520203,389.222961 331.565735,387.373657 326.395508,387.366028 
	C309.743896,387.341431 293.092194,387.383881 276.440521,387.380249 
	C269.094330,387.378632 268.887238,387.342346 268.850677,379.786133 
	C268.750671,359.123810 268.774933,338.460236 268.912109,317.798279 
	C268.926880,315.575897 268.837738,314.199493 266.569336,313.077759 
	C251.092041,305.424255 244.173370,292.584869 242.423569,275.622467 
	C239.585876,248.114151 258.515839,227.048584 278.069702,222.341812 
	C282.452393,221.286865 286.867462,220.894974 291.363434,220.582306 
	C314.839539,218.949783 338.297028,220.774475 361.761658,220.740784 
	C375.260651,220.721405 388.735138,220.190353 402.218781,219.817398 
	C407.872375,219.661011 415.067993,211.917831 414.710602,206.228531 
	C414.304382,199.762543 413.015045,193.319000 413.979156,186.824341 
	C416.392181,170.569168 427.719208,159.315308 444.851257,155.648392 
	C451.968414,154.125046 459.117706,154.874786 466.252686,154.723587 
	C469.856659,154.647202 473.032135,153.843857 476.152069,151.936462 
	C490.431152,143.206909 506.232513,141.798691 522.417664,143.030350 
	C530.051941,143.611313 537.421997,145.685318 544.614990,148.411102 
	C550.820435,150.762695 556.739258,153.801712 560.534180,159.200653 
	C566.282532,167.378616 574.442322,170.484192 583.589844,172.549591 
	C594.615479,175.039078 605.693359,176.945847 616.977966,177.735123 
	C626.226929,178.382004 631.756775,183.893463 631.191223,192.965759 
	C630.298645,207.283539 628.337158,221.478485 619.938599,233.785797 
	C613.122253,243.774414 603.717346,250.870667 593.558899,257.091980 
	C581.893982,264.235870 569.830627,270.605408 556.920654,275.197540 
	C554.609436,276.019592 554.275391,277.366150 554.275757,279.297363 
	C554.277832,289.962189 554.298157,300.627075 554.268555,311.291809 
	C554.263123,313.247772 554.818909,314.782562 556.387512,316.085999 
	C567.700378,325.486603 576.724976,337.182281 587.461731,347.165375 
	C588.924988,348.525909 590.469666,349.825500 591.766907,351.333710 
	C599.039673,359.789642 607.741577,362.719635 618.806335,359.776459 
	C626.139404,357.825897 633.810364,357.083923 641.364136,356.049469 
	C645.490784,355.484375 649.002869,353.825409 652.188782,351.308502 
	C657.761597,346.906006 664.081970,343.893372 670.821838,341.937531 
	C673.892883,341.046387 674.691223,339.529388 674.687195,336.629059 
	C674.658264,315.965027 674.701233,295.300629 674.826538,274.636963 
	C674.842163,272.057190 673.879089,270.936279 671.520691,269.894714 
	C666.402039,267.634033 664.594971,263.398041 665.782959,257.953888 
	C666.689209,253.801346 670.026855,251.618134 675.781860,251.682465 
	C681.122314,251.742157 686.417480,251.431839 691.722107,250.782532 
	C696.154724,250.239929 700.086792,251.136002 701.776367,256.073059 
	C703.267883,260.431335 701.517273,265.710846 697.579407,268.321442 
	C696.068542,269.323090 693.992126,269.929413 694.541809,272.296875 
	C695.059082,274.524261 697.221680,274.479767 698.949158,274.942627 
	C705.047852,276.576599 711.221497,278.058868 716.804199,281.111633 
	C729.297791,287.943481 736.036072,298.535583 737.347351,312.726471 
	C737.802856,317.655609 738.426270,322.551880 741.052917,327.057800 
	C742.666992,329.826843 741.873413,332.993774 739.789062,335.464478 
	C737.826843,337.790466 735.311646,338.714905 732.181519,337.763214 
	C725.194763,335.638824 718.095825,333.878479 711.087830,331.867920 
	C704.131836,329.872253 698.435242,325.363861 693.622375,318.535797 
	C692.675049,325.889954 692.994019,332.303772 693.038086,338.706390 
	C693.054504,341.085815 694.826904,341.631866 696.577637,342.272095 
	C704.021606,344.994263 710.498108,349.274170 716.612488,354.278534 
	C740.468628,373.803864 735.508362,412.571259 714.201843,428.298248 
	C708.581177,432.446991 702.910034,436.639343 695.887878,438.148590 
	C693.686523,438.621796 693.333496,439.909454 693.313293,441.710632 
	C693.275879,445.043274 693.176086,448.375702 693.177673,451.708191 
	C693.228271,557.363342 693.307251,663.018433 693.281250,768.673584 
	C693.280151,773.257324 693.560303,775.998901 699.497559,775.955627 
	C705.911743,775.908813 709.142212,779.853943 709.339233,785.629944 
	C709.566772,792.300171 706.856384,796.200439 699.942444,796.687744 
	C694.152832,797.095886 692.812439,799.425842 693.167114,804.694885 
	C693.568848,810.663879 693.124084,816.686279 693.149780,822.685059 
	C693.179626,829.641907 693.228027,829.661316 699.953552,829.667114 
	C717.284851,829.682007 734.616089,829.691772 751.947388,829.665894 
	C754.464722,829.662109 756.932983,829.740417 759.287781,830.766724 
	C763.973877,832.809448 767.754700,838.179260 767.124146,841.938232 
	C766.288635,846.919922 761.291748,850.987549 755.461365,851.027710 
	C740.463867,851.131165 725.465271,851.080811 710.467102,851.090271 
	C643.476379,851.132568 576.485718,851.173767 509.494995,851.216797 
	C499.496796,851.223206 489.498627,851.237183 479.000397,851.249390 
M446.262451,648.227600 
	C448.577942,651.328613 446.318817,654.299683 445.976227,657.315369 
	C445.619415,660.456238 443.649841,663.447510 444.762695,666.729675 
	C446.632111,666.898071 447.538971,665.789429 448.653290,665.113220 
	C471.302521,651.369019 487.829224,631.183044 504.685669,611.431274 
	C518.538940,595.198608 523.098145,574.770081 528.581665,554.904724 
	C530.918945,546.437256 532.376892,537.656982 532.575745,528.871155 
	C533.201477,501.225372 533.423889,473.570587 533.838684,445.919861 
	C533.968628,437.260956 534.318237,428.604614 534.383057,419.945679 
	C534.495239,404.950043 535.731445,390.016876 536.728455,375.071381 
	C536.979126,371.314514 535.542908,370.094299 531.857117,370.201324 
	C524.030701,370.428528 516.194153,370.321655 508.361725,370.323120 
	C495.029877,370.325623 481.697998,370.283630 468.366272,370.317688 
	C466.128845,370.323395 463.501923,369.787872 463.466400,373.540558 
	C463.304352,390.664124 456.116150,405.147919 445.588715,417.981323 
	C441.155396,423.385803 439.667145,428.399994 439.868500,435.534088 
	C440.540436,459.340607 440.175018,483.188019 439.674286,507.008514 
	C439.536652,513.555176 439.745331,519.248596 444.125031,524.713867 
	C450.788605,533.029114 448.945557,542.568665 447.471069,552.345337 
	C443.894165,576.061584 418.819458,606.095886 388.432281,602.458862 
	C371.395874,600.419739 357.078491,594.025879 346.948578,579.728394 
	C339.504364,569.221619 334.834320,557.668030 333.361542,544.770020 
	C332.900055,540.728333 332.911072,536.625916 332.061249,532.576172 
	C331.201019,537.938354 330.524628,543.293274 330.453522,548.656189 
	C329.989471,583.642456 330.018402,618.631470 329.577515,653.621216 
	C328.861542,710.439392 329.347076,767.272522 329.229462,824.099121 
	C329.222229,827.582458 330.363434,828.749634 333.833527,828.739197 
	C364.996399,828.645081 396.159729,828.652283 427.322723,828.718018 
	C430.923981,828.725586 431.933441,827.599609 431.219177,823.924133 
	C428.029999,807.512634 412.451447,795.343567 395.883148,796.597412 
	C389.892792,797.050720 389.662567,796.843140 389.663666,790.791077 
	C389.665863,778.959534 389.759125,767.127136 389.646667,755.296753 
	C389.599548,750.340454 390.615540,745.700073 392.785522,741.306885 
	C395.662170,735.483032 398.809784,729.788513 401.551575,723.903564 
	C408.500977,708.987488 417.476532,694.973511 421.862030,678.913269 
	C423.872009,671.552551 425.426941,664.064880 427.533508,656.733948 
	C430.484558,646.464233 435.166901,644.233276 446.262451,648.227600 
M674.728333,816.489502 
	C674.756287,812.156677 674.522583,807.802124 674.880554,803.496765 
	C675.300049,798.451599 674.189697,795.947693 668.274048,796.047913 
	C662.579041,796.144409 657.905945,790.880737 657.761169,785.876526 
	C657.611389,780.698792 661.134644,777.358521 667.783203,776.393494 
	C669.100647,776.202271 670.429871,775.890808 671.745300,775.928345 
	C674.836609,776.016296 675.812439,774.493835 675.676697,771.599854 
	C675.325623,764.115784 674.876770,756.625732 674.870544,749.137756 
	C674.791077,653.980042 674.784668,558.822327 674.739075,463.664612 
	C674.738281,462.058960 675.269104,460.319092 673.352478,458.225159 
	C632.716064,473.061920 591.817261,478.610657 552.725342,453.534454 
	C550.940613,455.284485 551.367859,456.697052 551.364319,457.965240 
	C551.295105,482.618225 551.133911,507.264008 550.477966,531.916138 
	C550.147583,544.329895 549.708252,556.493652 544.905273,568.106445 
	C543.135193,572.386047 542.805969,576.293701 546.400330,580.033386 
	C548.235718,581.942993 548.631409,584.803711 549.367310,587.371948 
	C553.391968,601.417053 557.418030,615.462158 561.538208,629.479492 
	C565.240356,642.074646 568.081360,654.798828 569.489624,667.903503 
	C570.865356,680.705566 569.591553,693.478760 570.004089,706.270508 
	C570.718201,728.413269 570.281067,750.593445 570.297791,772.757935 
	C570.299988,775.729980 570.200317,778.369934 574.404236,778.679749 
	C598.015137,780.419434 613.676880,796.869629 618.080505,819.187256 
	C618.779663,822.730347 617.555237,826.457642 619.160706,830.232300 
	C633.398560,829.184998 647.508301,830.850159 661.663025,830.630920 
	C674.698975,830.428833 674.702148,830.632019 674.728333,816.489502 
M536.675720,338.594727 
	C536.660889,337.428864 536.761292,336.248230 536.614014,335.099335 
	C533.807556,313.210358 534.991272,291.205505 534.589417,269.245087 
	C534.516663,265.266754 535.781860,263.261444 539.725403,262.126160 
	C549.674072,259.262054 558.892517,254.509903 568.173767,250.030655 
	C572.841125,247.778091 577.719360,245.689484 582.416748,241.824677 
	C580.876465,241.607864 580.108276,241.445969 579.333130,241.399063 
	C572.930481,241.011703 569.986938,236.619659 571.820984,230.265610 
	C572.246277,228.792130 573.149475,227.589478 574.570251,227.953033 
	C579.335388,229.172394 584.150146,227.541016 588.952454,228.639282 
	C599.369019,231.021484 604.606201,228.343277 609.642761,218.854691 
	C610.969482,216.355164 610.960632,214.664841 608.213562,213.142365 
	C602.240417,209.831848 598.798584,204.339508 598.207520,197.839294 
	C597.677185,192.006821 594.624084,191.386169 589.997742,191.327576 
	C578.245911,191.178787 567.357483,187.947098 557.688599,181.162781 
	C555.544617,179.658417 553.750183,179.414520 551.270020,180.249191 
	C531.770203,186.811523 512.222046,193.230225 492.686890,199.687515 
	C487.038818,201.554474 481.384613,203.402908 475.995331,205.173721 
	C473.883453,203.395126 473.716888,201.438629 473.625427,199.400345 
	C473.190552,189.706085 468.706482,182.365967 460.708099,176.972549 
	C452.302856,171.304764 442.397064,172.300323 435.358551,179.686951 
	C430.070740,185.236282 430.017944,196.745804 434.992584,203.802856 
	C438.807617,209.214874 443.769470,212.829269 450.107758,214.578217 
	C454.400299,215.762665 456.834961,218.494324 456.183289,222.947723 
	C455.532715,227.393738 452.546844,229.916458 448.016357,230.353363 
	C441.335358,230.997681 435.080811,230.236649 429.936340,225.216385 
	C428.589691,223.902191 427.162628,222.336273 424.500549,222.112579 
	C407.947113,242.214676 390.596863,261.943390 378.154419,286.220245 
	C380.594269,286.454285 381.727203,286.639740 382.863190,286.660522 
	C404.034729,287.048859 422.422546,294.823883 438.590973,308.073151 
	C450.036469,317.452179 456.966461,329.845062 461.076935,343.915985 
	C461.788452,346.351715 462.331299,348.631897 465.772491,348.689941 
	C486.077240,349.032410 506.383636,348.481537 526.696167,349.436066 
	C536.648987,349.903809 536.686951,349.095459 536.675720,338.594727 
M390.170532,307.981110 
	C365.236481,310.536499 360.052521,317.809967 354.064270,335.727264 
	C349.848267,348.341858 348.864655,362.162323 349.556915,375.662933 
	C350.052551,385.329468 349.997314,394.972321 350.039948,404.628326 
	C350.223816,446.263763 349.403961,487.916534 351.477264,529.520264 
	C351.982513,539.659546 352.708466,549.597290 357.687286,559.400635 
	C365.884338,575.540833 377.348602,584.278076 395.673248,583.832703 
	C400.757324,583.709167 404.931793,582.218933 409.148712,579.519226 
	C423.533112,570.310120 425.463318,555.777527 426.273254,540.691895 
	C426.337982,539.486267 425.635986,538.281677 424.586853,537.774231 
	C421.552490,536.306458 421.618408,533.660828 421.669159,530.953125 
	C422.062561,509.969482 421.184967,488.995850 421.331696,468.002289 
	C421.511993,442.204742 423.556213,416.409454 421.836945,390.592926 
	C421.428131,384.454376 423.242554,382.871490 429.306763,382.667969 
	C435.781036,382.450684 437.081055,383.451447 438.584595,389.758057 
	C438.937866,391.239929 439.351776,392.707336 439.804169,394.434814 
	C443.559265,389.385437 443.717224,383.768463 444.265564,378.362671 
	C447.176025,349.671204 437.150238,326.310059 410.206940,311.936157 
	C404.346069,308.809448 398.004303,306.505493 390.170532,307.981110 
M452.434723,698.829224 
	C456.094025,700.807190 459.855042,702.640381 462.731049,705.773071 
	C479.051971,723.550720 489.131989,744.033997 489.298859,768.580139 
	C489.422272,786.737671 489.201019,804.899170 488.945221,823.056274 
	C488.886047,827.258301 490.087708,828.911072 494.607178,828.887756 
	C527.760925,828.716736 560.915833,828.799988 594.070374,828.769104 
	C599.888489,828.763733 600.521606,827.881775 599.120056,822.336182 
	C595.416077,807.680481 582.391541,797.233948 567.463440,796.982239 
	C564.632935,796.934509 561.798401,796.952820 558.968994,797.043640 
	C551.685608,797.277588 551.665649,797.300720 551.660645,790.151489 
	C551.637634,756.996582 551.752319,723.840942 551.543518,690.687256 
	C551.471436,679.245178 550.675781,667.832642 548.992493,656.449829 
	C546.600220,640.272888 540.698486,624.979797 537.760986,608.962341 
	C537.136230,605.555908 535.716125,602.457397 532.748169,600.033081 
	C532.000488,601.067932 531.354492,601.828247 530.853943,602.674622 
	C519.552307,621.782043 506.600922,639.667847 490.809113,655.321655 
	C478.020905,667.997986 463.507202,678.061035 445.777832,682.747375 
	C444.177094,683.170471 442.585663,683.752747 441.109558,684.497986 
	C437.887939,686.124451 436.784973,689.466187 436.846344,692.447815 
	C436.904144,695.256104 440.150818,695.609802 442.627014,696.184448 
	C445.690125,696.895203 448.976196,696.710876 452.434723,698.829224 
M634.000305,372.730682 
	C625.447693,376.363037 616.310120,377.167267 607.232361,378.230438 
	C598.550293,379.247284 591.216125,377.718445 584.960999,370.379272 
	C576.282776,360.197083 564.459412,352.970978 556.816284,341.480743 
	C556.853760,345.387848 557.482666,349.073669 557.742065,352.785370 
	C558.904968,369.423706 559.673096,386.121277 553.810608,402.114380 
	C551.183289,409.281738 551.305115,416.431244 551.454529,423.750702 
	C551.571899,429.501251 553.427490,433.764893 559.377075,435.899445 
	C562.442322,436.999237 565.045288,439.355042 567.907166,441.059265 
	C581.192993,448.970734 595.700134,452.876343 611.032715,453.601746 
	C625.770325,454.298981 639.620789,449.878326 653.343628,445.259491 
	C659.102661,443.321167 664.506042,440.467621 669.751648,437.194031 
	C668.342529,435.506470 666.584351,435.464233 665.053589,434.917084 
	C648.098938,428.856720 637.281128,417.809967 635.346313,399.155762 
	C634.591431,391.877289 636.462708,384.981232 637.280701,377.921356 
	C637.539124,375.691132 639.221375,372.609863 634.000305,372.730682 
M413.944031,780.233154 
	C434.438385,785.067810 446.415894,801.872070 449.279572,818.696167 
	C449.931610,822.527100 447.372009,827.774414 450.791321,829.916321 
	C453.721802,831.751892 458.530823,830.589905 462.509216,830.749329 
	C463.008392,830.769348 463.515350,830.712463 464.007233,830.777710 
	C468.382568,831.357971 469.720917,829.441956 469.772339,825.101868 
	C469.939972,810.954590 469.684570,796.806519 470.498108,782.652466 
	C470.962280,774.576782 472.007446,766.291077 469.859039,758.290894 
	C464.086517,736.795410 452.635162,718.412048 438.151978,701.781677 
	C437.156281,700.638367 436.197510,699.020447 434.136139,699.101440 
	C431.800812,701.777588 430.537659,705.057800 429.070435,708.200134 
	C424.776154,717.397034 421.320374,727.086670 416.128601,735.738647 
	C409.097137,747.456360 408.091766,760.127869 407.315674,773.108337 
	C407.046906,777.604187 408.248444,780.209045 413.944031,780.233154 
M688.869080,420.574219 
	C701.353149,417.653900 709.179932,410.207550 712.225708,397.527527 
	C717.616882,375.083221 696.213562,354.393402 676.468018,360.344940 
	C652.775757,367.486115 645.908813,394.818878 660.762695,409.663361 
	C668.190369,417.086334 677.026733,421.695190 688.869080,420.574219 
M268.461731,291.039246 
	C273.154449,296.563019 279.294159,299.995758 286.355621,299.230011 
	C306.045471,297.094818 317.049744,278.985931 310.650726,260.199036 
	C306.578247,248.242538 291.219086,238.533920 280.698242,240.889236 
	C260.681366,245.370392 252.093903,277.270996 268.461731,291.039246 
M339.575500,280.971283 
	C342.092651,263.598663 339.395264,247.839172 325.586884,235.473038 
	C324.481049,234.482727 323.586853,233.246643 322.646332,232.082748 
	C318.430756,226.866089 313.600067,225.709366 306.683441,228.427521 
	C341.590607,256.106171 335.099609,284.495392 307.270630,313.702850 
	C313.750488,313.551910 319.702484,316.207794 324.096344,310.156128 
	C330.472870,301.373749 336.463379,292.400024 339.575500,280.971283 
M301.110107,608.663513 
	C294.656158,619.766052 299.968170,636.231140 311.197693,638.958191 
	C311.197693,625.964478 311.197693,613.056152 311.197693,599.883545 
	C305.450775,600.225159 304.192963,604.980530 301.110107,608.663513 
M499.924225,169.196060 
	C507.757385,166.343506 516.009949,164.527557 523.459473,160.270676 
	C521.495422,156.206894 518.654846,155.862061 515.298340,156.852478 
	C506.405853,159.476456 497.494690,162.039169 488.627136,164.744843 
	C485.067047,165.831100 481.601532,167.227463 478.082123,168.486572 
	C480.681915,174.013947 483.997131,175.885422 489.405212,173.066605 
	C492.460205,171.474258 495.917969,170.654755 499.924225,169.196060 
M715.500305,315.067535 
	C717.292969,315.669525 718.901794,317.313507 721.021790,316.117065 
	C721.532593,303.721863 709.082520,291.676422 695.066162,291.583557 
	C699.773987,296.987640 704.133118,302.134460 707.848083,307.769409 
	C709.688843,310.561462 711.938965,312.992859 715.500305,315.067535 
z"/>
<path fill="#000000" opacity="1.000000" stroke="none" 
	d="
M768.317139,799.189697 
	C768.071716,807.014526 763.420288,812.509460 755.497009,814.776245 
	C749.935486,816.367371 744.675110,814.132202 741.137390,808.419434 
	C738.351074,803.920044 737.176270,799.182983 740.552795,794.411072 
	C744.159119,789.314392 749.009216,786.314026 755.402344,787.126953 
	C762.243652,787.996826 767.387024,791.135803 768.317139,799.189697 
z"/>
<path fill="#000000" opacity="1.000000" stroke="none" 
	d="
M463.018188,202.784729 
	C461.588989,209.349411 457.227844,211.262482 451.866241,208.081421 
	C446.648560,204.985748 442.480835,195.812714 443.792450,190.043365 
	C444.623779,186.386627 447.293793,184.215073 450.765198,183.874207 
	C455.279327,183.431015 458.723236,185.781937 460.830933,189.773895 
	C462.903412,193.699051 462.368103,198.152496 463.018188,202.784729 
z"/>
<path fill="#000000" opacity="1.000000" stroke="none" 
	d="
M545.807495,193.727264 
	C550.291626,194.875000 553.532593,196.875549 554.365356,201.442368 
	C555.344543,206.812317 552.698853,211.506378 547.935669,212.824112 
	C543.685486,213.999924 538.398438,210.892639 536.980835,206.385788 
	C535.237793,200.844147 537.339661,196.121445 542.486389,194.195526 
	C543.392395,193.856491 544.425476,193.857132 545.807495,193.727264 
z"/>
<path fill="#000000" opacity="1.000000" stroke="none" 
	d="
M294.994202,286.236145 
	C289.108185,289.776886 283.612579,290.382355 277.971771,286.424164 
	C271.766052,282.069519 269.180359,275.864990 270.064758,268.772614 
	C270.924408,261.878693 272.641602,254.728699 280.449097,251.948654 
	C291.376740,248.057617 301.479218,255.907791 302.320496,268.693176 
	C302.776398,275.622345 300.426208,281.367035 294.994202,286.236145 
z"/>
</svg>