<svg version="1.1" id="Layer_1" xmlns="http://www.w3.org/2000/svg" xmlns:xlink="http://www.w3.org/1999/xlink" x="0px" y="0px"
	 width="100%" viewBox="0 0 1024 1024" enable-background="new 0 0 1024 1024" xml:space="preserve">
<path fill="#000000" opacity="1.000000" stroke="none" 
	d="
M757.338867,491.816498 
	C757.979492,499.588531 758.585083,506.881195 757.372498,514.203064 
	C756.511963,519.399231 754.233948,521.421814 749.388184,520.896179 
	C743.222412,520.227234 742.360779,519.027344 742.440430,513.146118 
	C742.625549,499.482147 742.627991,485.815125 742.595886,472.149567 
	C742.591125,470.125153 742.903687,467.108337 739.972778,467.101715 
	C737.083313,467.095154 737.349792,470.001068 737.233582,472.132935 
	C735.472351,504.447968 737.519043,536.760986 737.326538,569.080261 
	C736.960266,630.576660 737.474121,692.078247 737.144104,753.575073 
	C736.999329,780.557495 737.290527,807.536133 737.081238,834.515015 
	C737.045837,839.075562 737.376221,841.809998 743.243469,842.042603 
	C750.518860,842.330994 752.150879,844.558350 751.966675,852.013733 
	C751.769836,859.980042 751.113586,868.043030 741.184387,870.508301 
	C739.933472,870.818848 739.127869,871.718079 738.934387,872.942383 
	C737.492371,882.069214 733.334656,890.263977 729.792542,898.588257 
	C731.639343,900.301758 733.569885,899.662781 735.292603,899.668701 
	C751.458679,899.724243 767.624939,899.688599 783.791199,899.680725 
	C785.624451,899.679871 787.460571,899.624451 789.290466,899.704651 
	C794.163330,899.917908 798.234009,903.121643 798.728760,907.062500 
	C799.116638,910.152161 795.248779,915.035400 791.284424,916.113037 
	C788.227661,916.943970 785.062134,917.125916 781.872314,917.126282 
	C601.710388,917.145630 421.548462,917.188782 241.386536,917.248596 
	C237.862885,917.249756 234.334747,917.258423 231.112900,915.670227 
	C227.840912,914.057312 224.908051,911.647034 225.112671,907.766113 
	C225.329819,903.647156 227.987549,900.817566 232.021088,899.445068 
	C235.125778,898.388672 238.310196,898.604797 241.433289,898.958008 
	C256.370911,900.646912 271.350250,900.280762 286.326355,900.023682 
	C292.690430,899.914429 293.258698,899.147827 290.832886,893.454468 
	C287.664246,886.017639 287.281830,878.251526 287.692139,870.390747 
	C287.940460,865.633240 286.331482,863.059326 281.210358,863.297668 
	C276.662201,863.509460 277.297577,860.877197 278.612244,858.089172 
	C284.295502,846.036316 290.375000,834.154358 295.620270,821.914490 
	C304.739929,800.633728 310.981018,778.571716 310.610168,755.149658 
	C310.370392,740.004395 307.360443,725.407043 300.580414,711.716980 
	C297.179138,704.849365 293.772491,697.980835 290.575287,691.017639 
	C289.380737,688.415955 287.841919,687.359985 284.905304,687.235474 
	C257.637848,686.079590 233.392242,665.613831 227.585312,638.943909 
	C225.607254,629.859192 222.339645,620.991638 222.409866,611.544434 
	C222.462997,604.395386 222.802734,597.247131 223.096848,590.101868 
	C223.232849,586.797363 224.955734,585.632324 228.349731,585.862061 
	C238.551407,586.552673 248.539200,583.982483 258.678833,583.528809 
	C262.148193,583.373596 262.935547,581.127014 262.933807,578.042786 
	C262.916962,548.138489 269.375244,519.240540 276.756378,490.504089 
	C278.079987,485.350800 279.843506,480.302399 281.578217,475.265564 
	C282.837982,471.607910 282.445435,469.744812 277.985657,468.716705 
	C269.079315,466.663513 260.360870,463.789429 251.575912,461.216492 
	C224.900970,453.404083 211.247543,426.944122 219.098434,402.011993 
	C221.297607,395.028137 223.368881,388.003998 225.504501,381.000061 
	C226.590591,377.438171 228.813644,374.010986 226.049026,370.146942 
	C225.288712,369.084259 226.113403,367.530823 226.737564,366.349792 
	C234.916397,350.874664 239.894638,333.907257 248.897766,318.820587 
	C250.346725,316.392548 251.614075,313.727264 253.553818,311.748474 
	C257.254669,307.973145 257.207703,304.649902 254.858658,299.889923 
	C240.059525,269.901978 258.472992,231.143845 290.939819,222.640778 
	C301.633484,219.840103 312.129822,220.418793 322.559662,222.755829 
	C341.875275,227.083878 361.745239,228.852951 380.666992,234.749283 
	C386.994720,236.721085 390.585419,235.512589 394.763031,230.889587 
	C413.014374,210.692596 433.194885,192.547729 454.824310,176.027924 
	C458.523376,173.202728 462.431396,170.626251 466.393677,168.179031 
	C469.194946,166.448883 470.070465,164.263351 469.595825,161.073456 
	C466.708527,141.668564 481.865356,127.550117 499.001221,126.066521 
	C501.906342,125.815010 504.908203,126.681198 508.229187,127.074020 
	C510.315094,110.783775 521.844177,103.133827 535.582886,97.881226 
	C542.766357,95.134789 550.487732,95.838760 557.829163,97.084312 
	C569.129944,99.001602 580.564514,100.873611 591.299255,104.952110 
	C596.410034,106.893890 601.038147,107.317299 606.402832,106.995766 
	C625.877686,105.828568 644.729370,123.670525 644.845398,142.964142 
	C644.864075,146.074524 647.033081,146.050095 648.704834,146.521133 
	C661.039795,149.996735 673.423523,153.298798 685.782410,156.690201 
	C692.359314,158.494965 698.976501,160.169220 705.245911,162.953674 
	C709.315491,164.761093 711.295898,167.559021 711.361511,172.235107 
	C711.647156,192.617676 706.069397,210.974838 693.345886,227.058701 
	C690.398926,230.783997 686.827087,233.774704 682.874573,236.246185 
	C672.598328,242.671753 662.832520,250.122375 650.591919,252.755203 
	C648.083801,253.294678 646.190063,255.112061 644.341187,256.777679 
	C635.278503,264.942108 624.855713,270.709534 613.278992,274.391907 
	C610.602539,275.243256 608.704834,276.755890 606.913879,278.864227 
	C598.376282,288.914673 592.282166,300.275970 588.200623,312.766022 
	C587.838623,313.873535 587.766174,315.169800 587.131042,316.079437 
	C580.354736,325.784637 585.455078,333.727814 591.077148,341.334686 
	C597.833740,350.476685 605.531616,358.759766 614.958313,365.318573 
	C617.711304,367.234070 620.490234,368.057892 623.823608,367.822998 
	C640.915894,366.618652 656.702087,361.347839 671.574524,352.983337 
	C680.864624,347.758423 690.233032,342.666962 699.660889,337.694794 
	C705.151611,334.798950 705.643982,330.856537 700.421021,327.251343 
	C696.219666,324.351318 693.164917,320.874481 692.726318,315.623840 
	C692.099060,308.115906 695.393127,302.503693 701.980408,299.347321 
	C715.720398,292.763611 729.880798,293.138702 743.575928,299.142670 
	C753.732666,303.595367 754.143799,320.242249 744.773804,326.376617 
	C743.211609,327.399353 740.825562,327.647644 740.658386,330.568970 
	C743.725159,331.735321 746.825867,330.751831 749.789124,330.339355 
	C763.967529,328.365631 776.005615,332.097015 786.116394,342.518707 
	C803.157898,360.084167 808.278259,392.154785 796.106445,412.970612 
	C789.868286,423.638794 780.843384,432.334015 770.747803,439.557159 
	C767.767517,441.689484 767.381714,443.123566 768.738220,446.341156 
	C777.554993,467.254578 782.824524,488.940948 782.329590,511.813538 
	C782.267578,514.680786 782.025757,517.494934 780.881531,520.123230 
	C779.189026,524.011108 773.688293,525.967529 768.814819,524.615479 
	C764.496582,523.417419 764.212891,519.956238 764.794556,516.611938 
	C769.081421,491.964783 762.378235,469.086823 753.804260,446.482635 
	C753.295227,445.140594 752.782104,443.800171 751.927673,442.547760 
	C754.304016,458.785034 756.397339,475.003113 757.338867,491.816498 
M435.189453,883.407288 
	C437.275696,886.060974 438.737610,888.990967 439.500122,892.311584 
	C439.860291,893.880188 440.331085,895.880920 442.580566,895.511169 
	C444.967255,895.118896 444.947388,893.105469 444.877014,891.192200 
	C444.502563,881.012634 435.821320,869.015503 426.296600,865.365723 
	C416.766113,861.713745 406.632507,860.336609 396.890259,857.468628 
	C393.189545,856.379211 391.731781,854.379456 391.719666,850.689514 
	C391.697296,843.881042 394.337280,838.109314 398.064301,832.615112 
	C411.055573,813.464233 424.965179,794.922791 435.522583,774.182434 
	C453.115265,739.621216 458.392792,703.268677 450.052124,665.532227 
	C441.736420,627.908691 423.909668,595.161316 395.557892,568.562378 
	C394.622803,567.685120 393.316742,566.958008 394.121796,564.696533 
	C399.922363,564.854187 405.126709,567.317139 410.347565,569.764709 
	C427.530853,577.820618 436.753693,593.005859 445.641602,608.651001 
	C453.414734,622.333984 458.807465,637.072266 464.034454,651.730042 
	C466.466522,658.550171 470.634735,666.060547 467.484528,674.220642 
	C466.935089,675.643860 466.825623,677.676270 468.522675,678.772827 
	C470.230103,679.876160 471.735901,678.672363 473.132172,677.850464 
	C479.628174,674.026733 485.213745,669.050781 490.815216,664.049500 
	C512.213928,644.943481 528.155579,621.996765 538.721741,595.421814 
	C549.110291,569.293396 555.163147,542.035950 558.503967,514.152588 
	C559.112183,509.076019 557.450012,507.773560 552.564026,509.503906 
	C551.355225,509.932037 550.385437,510.821411 548.851196,510.657776 
	C539.433228,509.653137 538.510986,519.265869 533.158691,523.374695 
	C533.450073,533.701233 525.190063,535.793091 518.020508,537.740356 
	C515.387512,538.455505 513.349976,540.145996 510.677429,540.794250 
	C506.715027,541.755188 504.694427,537.552063 502.139740,538.279358 
	C494.431519,540.473694 488.751465,536.177429 482.645050,533.254028 
	C477.666534,530.870605 476.144592,525.911011 478.364594,520.908142 
	C479.377045,518.626587 480.760986,516.434814 481.324921,514.048279 
	C482.046753,510.993805 483.688263,507.398987 480.230377,504.967163 
	C475.637817,501.737427 472.590881,496.713684 467.308960,494.264252 
	C465.787415,493.558624 464.646393,491.923279 463.399780,490.637299 
	C459.243073,486.349121 454.775391,482.272980 449.947479,478.777802 
	C448.445435,477.690399 446.850555,477.147125 445.680176,475.337585 
	C440.364685,467.119080 434.987427,458.932495 428.006165,451.934845 
	C426.367462,450.292267 425.304596,449.814545 422.928955,450.605225 
	C418.271912,452.155304 414.578278,455.442169 410.001190,457.049835 
	C383.903564,466.216461 357.176025,472.403717 329.428711,472.872711 
	C321.775757,473.002014 314.094666,474.067047 306.288910,472.134399 
	C299.300995,470.404236 299.115753,471.201050 297.337189,478.353943 
	C296.413269,482.069824 295.515167,485.794525 294.479034,489.479706 
	C284.279053,525.756836 277.627319,562.476990 281.300293,600.373535 
	C283.905304,627.251404 289.381897,653.626526 302.573578,677.361206 
	C316.826477,703.005310 330.293671,728.973206 342.253265,755.743103 
	C342.789764,756.944031 343.228241,758.287720 345.398346,758.003235 
	C345.905762,755.328308 344.837036,752.832214 344.082428,750.401672 
	C338.447693,732.253052 330.505066,714.999207 323.335876,697.448242 
	C318.058014,684.527527 310.331573,672.702148 306.627380,659.038025 
	C304.571564,651.454346 304.083984,643.563171 301.890717,636.111328 
	C297.998810,622.888245 293.488922,609.911621 292.151947,596.019714 
	C290.851624,582.508728 290.737732,569.117493 292.603302,555.666504 
	C293.231567,551.136414 295.729309,549.828796 299.768890,549.932495 
	C301.505981,549.977051 303.026306,550.460815 304.423676,551.467712 
	C307.767426,553.877075 309.996887,557.843445 311.476776,560.946472 
	C313.418793,565.018372 314.657318,569.839905 316.290344,574.417786 
	C313.735840,578.448059 314.344421,578.482666 313.965332,585.143860 
	C313.735474,589.182983 314.660431,592.566345 315.445343,596.297791 
	C315.912567,598.519043 317.490662,600.946838 316.835693,603.024109 
	C315.675262,606.704163 312.884796,609.835388 313.445160,614.041931 
	C316.576324,614.286560 319.963013,614.707642 318.285370,619.774963 
	C317.886230,620.980591 318.898926,621.572998 319.531128,622.272034 
	C322.294006,625.326904 322.088654,629.620117 324.146210,633.033264 
	C326.514221,636.961426 323.882843,642.353577 330.754639,645.594482 
	C335.852264,647.998657 340.838165,651.918213 346.473206,652.971375 
	C351.493073,653.909546 354.781097,655.588562 358.651794,659.218140 
	C365.537231,665.674744 369.004150,673.991394 372.334747,681.854187 
	C378.099762,695.464233 382.979095,709.443237 383.438263,724.940613 
	C383.772186,736.211182 384.489624,747.496277 383.726288,758.730957 
	C382.703522,773.783508 377.190735,787.790222 372.318787,801.909912 
	C370.589905,806.920593 370.409607,812.707703 367.228485,816.924500 
	C361.476990,824.548584 359.011810,832.718262 360.222504,842.104126 
	C360.306946,842.758484 360.307526,843.450867 360.195496,844.099304 
	C359.223175,849.728821 362.586060,856.821472 354.758972,860.201050 
	C354.285675,860.405457 353.969788,861.788940 354.131073,862.498779 
	C354.657501,864.815674 351.899261,864.434021 351.548523,865.380371 
	C355.079834,873.023987 363.083191,876.527405 366.463440,884.194275 
	C362.800659,885.741028 358.390167,886.991089 362.756989,891.687622 
	C353.396362,893.830017 344.140961,892.878052 334.895935,892.248840 
	C322.682159,891.417725 313.366425,882.956177 312.738068,871.888489 
	C312.224365,862.840088 313.667633,853.857117 316.066315,845.257568 
	C321.516541,825.717773 328.288940,806.569275 332.996948,786.786072 
	C335.107452,777.917725 334.224579,769.646912 331.455475,761.315735 
	C330.923370,759.714905 330.730743,757.599487 327.466309,756.877136 
	C327.445404,772.710876 325.037506,787.980957 320.065399,802.854980 
	C315.085571,817.751953 309.937134,832.540955 301.310944,845.623291 
	C305.053131,848.390198 307.858917,844.490723 311.140076,846.397095 
	C309.377777,851.892151 307.178284,857.290833 305.930695,862.901184 
	C301.309723,883.681274 311.877472,898.205444 332.251831,897.773438 
	C345.907166,897.483887 359.575439,897.855835 373.237640,897.821594 
	C388.539276,897.783203 403.840546,897.607910 419.142151,897.521545 
	C422.573883,897.502197 423.967133,895.468689 423.009888,891.872803 
	C421.524567,886.293213 417.853882,882.288879 413.704010,878.575439 
	C412.610748,877.597107 411.349792,876.387695 412.258301,874.712341 
	C412.994598,873.354675 414.521667,873.567505 415.848816,873.500305 
	C423.888062,873.093140 429.916443,876.745239 435.189453,883.407288 
M318.217926,415.610687 
	C317.307373,418.640106 316.320404,421.649292 315.511078,424.705505 
	C314.893036,427.039581 315.638367,428.429504 318.323090,428.852509 
	C322.687042,429.540131 326.024231,428.474915 328.440460,423.334808 
	C327.195282,429.441559 330.948822,428.704895 333.946198,428.961426 
	C339.787201,429.461273 345.500092,428.232208 351.240173,427.576874 
	C364.444031,426.069305 377.455444,423.576416 389.970154,418.936401 
	C396.083160,416.669891 396.858521,414.646240 394.089874,409.003265 
	C387.286621,395.137085 385.688629,380.379974 386.953461,365.214447 
	C387.175934,362.547089 387.880035,359.743469 390.007874,357.760101 
	C391.695190,358.559937 391.999725,359.818451 392.332642,361.139404 
	C400.028229,391.671478 417.744934,415.868103 440.719208,436.510498 
	C456.100464,450.330597 473.328552,461.852722 489.841461,474.254272 
	C492.470673,476.228882 495.379761,478.403992 499.066376,478.201355 
	C500.290558,475.336639 497.065369,472.936035 498.942627,470.146332 
	C499.529968,470.146332 500.222748,469.986359 500.801300,470.175659 
	C502.697052,470.795807 504.582428,471.470062 506.416656,472.252747 
	C522.090149,478.941010 538.084351,485.101074 555.125122,486.467133 
	C595.103577,489.671997 632.854248,480.597351 668.935547,463.753571 
	C670.624695,462.964996 672.729492,462.344849 673.214905,460.120117 
	C672.385193,458.274231 670.864868,458.215637 669.347351,458.351990 
	C666.360168,458.620422 663.289978,458.651825 660.437439,459.442627 
	C658.994934,459.842560 658.229126,459.788177 657.562805,458.727478 
	C656.955383,457.760529 657.498352,456.777283 658.096863,455.962891 
	C659.039307,454.680695 660.381409,453.993866 661.951233,453.956543 
	C666.062439,453.858856 670.084900,452.978302 674.296082,453.532166 
	C682.150696,454.565216 689.863892,453.812988 697.262329,450.486389 
	C704.557495,447.206268 711.938049,444.097260 718.724060,439.837891 
	C735.020325,429.609222 748.570068,416.912445 755.147400,398.181396 
	C755.770569,396.406433 756.931274,394.531708 755.477905,392.164825 
	C751.202759,392.535675 746.984436,395.135925 742.080688,393.536621 
	C743.544373,388.302643 747.300354,384.930573 750.983459,381.681335 
	C754.806335,378.308807 755.552124,374.627167 753.604126,370.085175 
	C751.649231,365.526855 747.763977,365.836945 743.864624,365.999664 
	C740.203125,366.152527 736.538940,366.285492 732.875061,366.316132 
	C731.429016,366.328247 729.677246,366.543671 729.033936,364.739441 
	C728.475342,363.172607 729.272278,361.760406 730.263123,360.618011 
	C731.007812,359.759369 732.056396,359.169800 732.939270,358.424408 
	C734.756042,356.890533 738.389771,356.364746 737.812134,353.454071 
	C737.171875,350.227142 733.460266,350.347229 730.805847,349.607910 
	C729.705933,349.301544 728.490479,349.426056 727.331665,349.312653 
	C714.453186,348.051941 703.107971,352.409668 692.243530,358.727997 
	C679.297546,366.256927 666.741394,374.575867 652.281799,379.138000 
	C627.107666,387.080811 601.902466,385.506836 576.969116,378.432617 
	C554.501648,372.058044 534.822021,360.573181 518.053101,344.086548 
	C514.108459,340.208282 513.809021,334.741150 510.705109,330.855103 
	C496.372162,312.910248 479.381195,298.299561 457.917389,289.217499 
	C430.417267,277.581299 402.529755,280.001007 374.430756,286.043976 
	C372.704834,286.415161 371.315369,287.158905 370.428223,288.724762 
	C363.866455,300.306274 356.635223,311.480377 351.183929,323.718781 
	C338.009003,353.296997 327.982666,383.975250 318.217926,415.610687 
M704.664368,718.500061 
	C704.623230,642.343384 704.582092,566.186646 704.540955,490.119476 
	C700.261658,489.754211 698.098328,491.316071 695.831360,492.737122 
	C681.713074,501.587189 667.617859,510.491608 651.441833,515.298523 
	C628.945374,521.983643 606.015808,523.483704 582.725525,521.321777 
	C574.790466,520.585205 574.456909,521.148682 573.370117,529.077942 
	C569.483032,557.437439 562.363770,584.884705 549.932251,610.782654 
	C548.424683,613.923157 548.779663,615.994873 550.980591,618.777466 
	C567.314880,639.428955 580.618652,661.779541 588.692688,687.042236 
	C596.610046,711.815002 600.375122,737.117615 600.545898,763.157898 
	C600.707825,787.852356 597.366272,812.329224 597.050049,836.975647 
	C596.994507,841.306396 598.362122,843.475342 602.540100,844.234436 
	C610.226685,845.630859 617.907959,847.073669 625.551575,848.686157 
	C647.344421,853.283447 665.351868,873.655701 667.290222,895.987122 
	C667.532776,898.781616 668.530579,899.724121 671.262390,899.713745 
	C683.257812,899.668152 695.253723,899.788086 707.249451,899.786926 
	C708.668945,899.786804 710.314819,900.133728 711.620239,898.083435 
	C708.278381,889.936279 705.081726,881.384766 702.812866,872.529419 
	C702.552429,871.513000 701.949219,870.634094 700.878845,870.434021 
	C692.804199,868.924438 690.944885,862.387451 690.182312,855.931030 
	C688.761597,843.901917 688.784607,843.318420 700.361511,842.746704 
	C703.814880,842.576172 704.924500,841.413574 704.910706,837.960571 
	C704.752747,798.474060 704.726013,758.987000 704.664368,718.500061 
M446.253021,202.757507 
	C434.772919,213.469101 422.766815,223.661835 412.500916,235.947311 
	C416.150726,237.590317 416.186920,237.843811 418.292236,237.543243 
	C431.168732,235.705017 443.234863,239.340363 455.303162,242.899307 
	C479.364807,249.995087 500.361511,262.280457 518.629761,279.545319 
	C534.854736,294.879089 546.855713,313.078125 556.897400,332.785095 
	C558.020752,334.989777 558.384399,337.970886 562.182007,339.197144 
	C566.517212,317.708984 573.740295,297.520264 584.948120,278.924103 
	C581.884094,277.712219 579.508606,280.216827 576.753723,279.115631 
	C567.427429,275.387512 558.592896,271.057587 552.222595,262.809845 
	C551.032410,261.268890 550.567505,260.123230 551.136963,258.390228 
	C551.874146,256.147186 553.691162,256.522064 555.283081,256.768860 
	C560.210876,257.532806 565.120422,258.416748 570.031982,259.282959 
	C592.455383,263.237549 613.466309,259.898163 632.489014,246.901031 
	C638.903687,242.518234 644.921509,237.543106 653.095581,234.570480 
	C648.078857,233.468216 643.897095,232.857819 639.938293,231.564697 
	C637.536682,230.780243 634.754761,229.427124 635.325684,225.948013 
	C635.832642,222.858994 638.641724,222.992874 640.783875,222.729294 
	C649.855591,221.613068 658.936096,220.493088 668.044739,219.770416 
	C679.914917,218.828644 686.839233,213.369278 690.241150,201.347626 
	C684.467834,197.962769 680.176758,193.009659 677.255737,186.834488 
	C674.159058,180.288040 674.562073,179.372742 681.437378,177.811951 
	C684.325073,177.156387 687.589539,177.234299 689.910706,174.017868 
	C678.439697,171.021057 667.506592,168.232269 656.612427,165.299072 
	C646.369019,162.541122 635.623291,160.797791 628.199524,151.981033 
	C626.956604,150.504852 625.379578,150.522629 623.638977,151.066299 
	C616.656311,153.247208 609.495239,154.953537 602.685730,157.576538 
	C566.512939,171.510117 533.583679,191.195206 503.047485,214.912842 
	C498.837891,218.182465 496.018646,217.928345 492.247986,214.774551 
	C483.949615,207.833771 478.852509,198.749054 474.373169,189.197067 
	C471.586517,183.254608 471.373810,183.149765 465.818542,186.927002 
	C459.055359,191.525528 453.012970,197.026321 446.253021,202.757507 
M525.134705,704.966248 
	C524.649780,705.856812 524.225464,706.756958 524.738159,707.933228 
	C531.197449,705.512878 527.901428,713.545532 531.952209,714.367737 
	C534.661377,712.516663 536.613220,709.593933 538.665833,706.729309 
	C540.590332,707.763550 542.002563,708.552673 542.864746,711.082458 
	C544.017212,714.463806 545.052551,717.947510 546.270447,721.327454 
	C549.582458,730.519104 550.295593,739.499451 541.961792,746.901489 
	C540.967346,747.784668 539.445312,749.009094 540.157410,750.700806 
	C541.447021,753.764160 539.290527,754.726440 537.604614,756.114685 
	C534.587585,753.727173 532.193298,751.275635 530.214355,748.347778 
	C526.564270,742.947510 524.994934,742.997437 521.170349,748.292847 
	C517.037292,747.540222 515.166687,742.761719 510.615021,742.112549 
	C509.369263,746.494385 511.835327,749.017334 514.463684,751.306335 
	C516.620178,753.184387 519.061401,754.944397 520.181519,757.526917 
	C522.613220,763.133240 522.440125,769.729431 521.474792,775.030579 
	C519.802490,784.213745 522.605652,792.428162 523.864685,800.934692 
	C524.528320,805.418396 525.619812,810.965393 531.820435,812.176697 
	C532.022400,811.924927 532.221863,811.671082 532.426758,811.421753 
	C536.953918,805.909241 536.946899,805.936768 541.589233,810.587280 
	C542.251770,811.250916 543.432678,811.362427 544.248779,811.914246 
	C546.377563,813.353699 549.026550,812.521606 551.652893,813.361938 
	C549.889221,816.451843 549.088318,819.077698 552.304688,821.439880 
	C553.145142,822.057190 553.470154,823.881653 553.418396,825.126160 
	C553.097839,832.840515 555.475098,840.270630 555.765137,847.863098 
	C555.994507,853.865601 559.192871,861.486633 548.739075,864.510986 
	C555.619568,868.450623 557.102722,875.618469 561.138672,881.076843 
	C560.351807,881.637939 559.262817,882.029175 558.834229,882.791687 
	C557.497925,885.169067 556.891541,888.267822 552.914001,887.094849 
	C552.532349,886.982300 551.538818,888.032227 551.233582,888.721558 
	C549.289001,893.112793 545.375000,893.198608 541.544739,893.048889 
	C538.234619,892.919373 534.934998,892.346191 531.647278,891.857849 
	C523.822754,890.695862 516.062378,889.541260 512.111511,881.109619 
	C510.240112,877.115906 509.052643,873.041809 508.704987,868.686584 
	C507.831818,857.747925 507.444092,846.744507 505.983185,835.885254 
	C504.141937,822.199158 497.807587,809.952942 492.108002,797.562073 
	C489.299591,791.456604 485.855865,785.771484 480.746796,781.299194 
	C479.499451,780.207275 478.527344,778.256042 476.015503,778.926636 
	C475.919495,781.308716 477.592133,782.886475 478.605988,784.657166 
	C489.977509,804.517456 498.384460,825.220886 499.617035,848.540222 
	C500.098969,857.657532 499.765625,866.831665 501.174835,875.940247 
	C503.284851,889.578857 512.147766,897.737976 525.747314,897.662964 
	C545.687500,897.552917 565.627075,897.236145 585.566956,897.233948 
	C596.689941,897.232666 607.815857,898.438110 618.926758,896.857727 
	C624.111206,896.120361 624.839172,894.777161 622.407532,889.996338 
	C620.328796,885.909607 617.170044,882.728333 613.862183,879.655884 
	C612.666870,878.545593 610.978943,877.423035 611.815369,875.510498 
	C612.585327,873.749878 614.510742,873.790466 616.179504,873.716797 
	C618.182251,873.628296 620.158020,873.704285 622.088013,874.418701 
	C631.293335,877.826294 637.410889,884.191589 640.207581,893.583618 
	C640.796082,895.560059 641.174316,897.126770 643.683289,896.648560 
	C646.452515,896.120850 645.884216,894.020020 645.520142,892.319153 
	C643.259338,881.756714 635.468994,866.710083 619.211243,864.239502 
	C610.993958,862.990723 602.916199,860.703796 594.675293,859.762207 
	C585.535217,858.717957 581.922241,853.300598 580.424988,845.101868 
	C578.412476,834.081604 580.282593,823.138977 581.188171,812.266541 
	C583.137939,788.859253 584.710754,765.538086 582.955444,742.008667 
	C580.811707,713.270386 572.459839,686.554626 558.871826,661.333069 
	C554.295166,652.838013 549.885620,644.231079 543.171509,637.081604 
	C539.243469,632.898804 538.484741,632.787720 535.624329,637.497925 
	C533.125000,641.613708 531.098816,646.063477 528.247559,649.908813 
	C522.794495,657.263062 515.046570,663.541992 518.487366,674.403931 
	C518.621948,674.828918 518.323303,675.376465 518.291626,675.871094 
	C517.770203,684.035522 519.259827,691.676331 524.530151,698.183289 
	C526.184753,700.226135 526.453430,702.207031 525.134705,704.966248 
M438.660309,851.629639 
	C453.781647,859.025757 463.750549,870.552002 467.151855,887.295715 
	C467.960480,891.276184 465.786469,896.550293 469.467957,899.043518 
	C472.933563,901.390503 477.912384,899.607483 482.211304,899.931946 
	C482.707458,899.969421 483.210785,899.899536 483.709808,899.913879 
	C487.058624,900.009949 488.257446,898.422607 487.426666,895.211548 
	C483.832245,881.318909 482.381836,867.338074 482.240814,852.856445 
	C481.985016,826.585510 471.093384,803.844543 454.534607,783.720703 
	C452.171326,780.848633 450.418945,781.573975 448.908997,784.472595 
	C447.524780,787.129883 446.254608,789.850403 444.782959,792.457703 
	C436.415222,807.283142 426.341156,820.978210 416.540161,834.849609 
	C410.668365,843.159973 410.753021,843.758911 420.771912,846.142334 
	C426.617676,847.532898 432.366058,849.142456 438.660309,851.629639 
M255.474075,440.099274 
	C245.257965,435.731171 241.140732,426.744324 238.071365,417.006714 
	C237.261841,414.438507 238.086212,412.373688 241.087082,412.874969 
	C247.045181,413.870361 253.209320,413.485138 258.972015,416.028748 
	C261.459503,417.126709 261.746368,420.103210 264.330566,420.840363 
	C271.655151,422.929840 278.863739,425.428314 286.710175,424.793091 
	C289.730133,424.548584 291.822510,423.489014 292.906586,420.698456 
	C295.300903,414.535248 298.970764,408.968079 300.358124,402.283081 
	C301.319550,397.650665 302.195496,392.839172 304.601349,388.522156 
	C307.722504,382.921600 305.821533,379.340790 299.389526,378.502777 
	C294.446472,377.858734 289.469757,377.472290 284.507202,376.979156 
	C278.525543,376.384766 272.284698,375.979980 267.150360,372.880768 
	C262.781189,370.243439 258.202118,368.592499 253.500549,367.014313 
	C246.830658,364.775360 245.830414,364.970551 243.966064,371.775818 
	C240.235352,385.393585 235.456421,398.783630 233.575790,412.841675 
	C232.043396,424.296722 235.522659,433.931000 245.652527,440.384064 
	C256.225616,447.119476 268.373779,449.536896 280.251801,452.640472 
	C281.252716,452.902039 282.545410,453.217316 283.771759,451.857269 
	C281.643036,449.057556 278.453583,448.198578 275.341156,447.265533 
	C268.819275,445.310425 262.171021,443.726440 255.474075,440.099274 
M292.973328,314.577942 
	C306.249664,318.447632 318.766937,316.833344 329.739441,308.292877 
	C344.039764,297.162140 349.736511,277.906799 343.081726,261.683807 
	C336.438141,245.488190 325.583618,234.932480 303.612000,236.216965 
	C279.052612,237.652740 260.778198,262.158569 267.012146,286.596497 
	C270.476044,300.175507 279.676514,308.861786 292.973328,314.577942 
M724.093018,720.500549 
	C723.952637,638.193237 723.812988,555.885925 723.666870,473.578613 
	C723.663879,471.913605 723.675537,470.239807 723.514221,468.586334 
	C723.366150,467.068115 723.000916,465.445404 721.049683,465.386230 
	C719.095825,465.326965 718.610352,466.861877 718.452271,468.426208 
	C718.318726,469.747620 718.329102,471.089233 718.355835,472.420288 
	C718.549500,482.065521 718.960083,491.710754 718.938843,501.355225 
	C718.813538,558.317261 718.549500,615.279053 718.412842,672.241150 
	C718.325745,708.552673 718.378113,744.864441 718.367981,781.176147 
	C718.363037,798.837524 718.319336,816.499023 718.401306,834.159973 
	C718.411865,836.440125 717.384033,840.158508 720.884583,840.209839 
	C724.937317,840.269348 723.258545,836.327271 723.653076,833.952515 
	C723.733948,833.466064 723.663696,832.954773 723.665527,832.454895 
	C723.801392,795.470093 723.937561,758.485291 724.093018,720.500549 
M503.396729,286.115509 
	C470.470276,259.449738 433.346954,248.192612 391.095764,255.151428 
	C383.509979,256.400818 381.972809,262.629669 377.976349,267.623474 
	C381.053467,268.427460 383.110474,267.569702 385.200989,267.209015 
	C403.544800,264.043945 421.880463,263.259521 440.200684,267.365143 
	C472.074127,274.508118 498.022308,291.427795 519.212280,315.865417 
	C523.782104,321.135712 529.117065,325.799042 532.591736,332.092438 
	C534.009338,334.660034 536.039978,337.761932 540.644165,337.417175 
	C532.352173,317.146210 519.830139,300.657379 503.396729,286.115509 
M390.451752,435.058441 
	C364.715546,444.563354 338.153259,447.972656 310.888062,445.330170 
	C305.418213,444.800049 304.866943,448.104065 304.029510,451.713776 
	C302.993683,456.178802 306.749115,455.324768 309.011658,455.994324 
	C310.275940,456.368469 311.634277,456.545685 312.956879,456.584045 
	C340.234589,457.375519 367.181854,455.648224 393.108826,446.077362 
	C398.335022,444.148132 401.318909,438.320648 399.738037,432.496613 
	C399.124725,432.532898 398.442047,432.451385 397.836700,432.630829 
	C395.603271,433.292847 393.395416,434.041229 390.451752,435.058441 
M313.558594,363.316101 
	C314.043457,362.445221 314.579590,361.598602 315.004700,360.699463 
	C317.523712,355.372009 317.185822,354.703339 311.427429,353.336060 
	C307.705139,352.452240 303.996887,351.508514 300.269104,350.649078 
	C286.836334,347.552124 273.392120,344.504700 259.965363,341.382050 
	C256.112549,340.486023 253.984344,342.191284 252.717743,345.640106 
	C251.398666,349.231781 254.260147,349.832397 256.404602,350.936127 
	C257.586212,351.544220 258.807129,352.088623 260.045349,352.572083 
	C274.831268,358.345367 290.496704,360.804504 305.800781,364.617859 
	C308.151123,365.203491 310.764618,365.529999 313.558594,363.316101 
M485.632141,163.648148 
	C489.938202,176.630280 503.313873,187.251999 510.604248,183.325836 
	C509.813080,180.502914 507.846710,178.533112 505.763885,176.617905 
	C502.317566,173.448990 499.135376,170.037689 497.370087,165.609390 
	C493.856201,156.795013 498.482117,150.616226 507.940216,151.481079 
	C510.576691,151.722183 513.183960,152.270264 515.817078,152.565735 
	C517.203491,152.721283 518.546326,152.291702 519.270691,151.024612 
	C520.089600,149.592163 519.121643,148.520828 518.201416,147.517303 
	C511.939972,140.689087 496.305969,140.380386 489.898010,147.064621 
	C485.657776,151.487656 484.897736,157.002838 485.632141,163.648148 
M251.015320,622.159424 
	C253.350418,620.598999 254.917374,617.465759 258.302917,618.035278 
	C261.800537,618.623718 262.569336,616.454285 262.971588,613.888428 
	C263.330109,611.601440 263.652191,609.270020 263.605927,606.965881 
	C263.484131,600.902222 261.843231,599.567688 255.936584,600.447510 
	C250.700104,601.227539 245.556427,602.702759 240.135803,601.491028 
	C237.111465,600.814941 235.898346,602.701843 236.048538,605.571350 
	C236.716736,618.337952 242.784744,628.664673 250.817902,638.078369 
	C251.961212,639.418213 253.464844,640.261414 255.205322,639.031799 
	C257.074158,637.711426 256.221161,635.761047 255.491684,634.530823 
	C253.553864,631.262817 251.287521,628.172668 248.967880,625.153137 
	C247.130783,622.761780 245.512650,620.374695 245.388977,616.942139 
	C246.774292,616.870789 247.876602,616.814026 249.326050,616.739380 
	C248.072693,619.141846 247.296463,621.273560 251.015320,622.159424 
M574.375977,118.222260 
	C575.182007,117.547913 576.595825,117.669411 576.998352,116.115234 
	C559.316223,113.200127 543.655029,117.659630 529.689087,128.418427 
	C527.767029,129.899109 524.745300,131.949478 527.117676,134.917023 
	C529.131348,137.435883 531.910400,138.671280 535.457031,136.527313 
	C547.585815,129.195419 560.495544,123.462090 574.375977,118.222260 
M318.019867,333.034546 
	C301.375702,334.454865 285.956390,330.779175 271.761505,321.955292 
	C270.101074,320.923157 268.390289,319.444702 266.472656,321.585968 
	C265.030884,323.195862 263.107971,324.807495 263.506317,327.097290 
	C263.933014,329.550110 266.450623,329.415314 268.373901,329.656982 
	C275.796539,330.589508 283.210327,331.665833 290.661041,332.282257 
	C299.557373,333.018341 307.662872,336.862976 316.357147,338.359436 
	C320.173370,339.016327 322.400452,338.081512 322.904205,334.095184 
	C321.538422,333.011383 320.184631,333.105774 318.019867,333.034546 
M731.127625,860.685669 
	C733.532837,860.533142 736.625244,861.222046 736.556030,857.363098 
	C736.484192,853.353943 733.190918,854.425232 730.938538,854.383850 
	C723.953186,854.255432 716.964050,854.326294 709.976379,854.337158 
	C708.272766,854.339844 706.507812,854.340515 706.308105,856.688965 
	C706.087646,859.283020 707.849243,859.430969 709.809143,859.788025 
	C716.580505,861.021606 723.397278,860.704346 731.127625,860.685669 
M729.171509,317.650421 
	C732.147583,317.388794 736.531433,318.544861 736.328796,313.846008 
	C736.157288,309.866699 732.002991,310.539001 729.159302,310.423218 
	C723.502197,310.192902 717.841980,310.348907 712.216553,311.110840 
	C710.314026,311.368500 707.681030,310.964447 707.793335,313.862152 
	C707.892639,316.424194 710.365784,316.482513 712.320374,316.848633 
	C717.596863,317.837036 722.931030,317.635040 729.171509,317.650421 
M780.606689,375.103638 
	C783.021179,374.536041 786.285583,375.080109 785.344604,370.681641 
	C784.178833,365.231995 781.363953,361.785339 777.788086,362.539856 
	C774.461487,363.241760 770.952209,363.744843 768.177002,365.954193 
	C769.239807,376.437103 769.650757,376.779999 779.317993,375.375977 
	C779.481262,375.352295 779.641541,375.308228 780.606689,375.103638 
M565.709656,148.838516 
	C567.754089,151.580215 569.145630,154.832962 571.796814,157.043747 
	C577.422363,153.983124 577.833984,152.791077 575.098206,147.713486 
	C573.998535,145.672440 572.786926,143.692017 571.663635,141.663300 
	C568.241516,135.483032 564.408325,135.356720 559.675659,141.359894 
	C561.540833,143.646286 563.419434,145.949173 565.709656,148.838516 
M593.374939,145.785782 
	C595.605713,143.773468 594.303040,141.923874 593.098328,140.085327 
	C590.845947,136.647659 588.328003,133.335693 588.284363,128.767273 
	C583.765137,129.100037 580.096802,130.526871 576.382874,133.664917 
	C581.667053,137.742996 585.096924,142.968018 588.291016,147.954926 
	C590.439453,147.999802 591.576050,146.950943 593.374939,145.785782 
M774.025757,391.398102 
	C772.141052,394.063110 771.033569,397.085663 770.535950,400.247681 
	C770.246094,402.089539 771.141846,404.856567 773.250427,403.369141 
	C775.108643,402.058289 776.903687,402.388519 778.610107,401.682495 
	C782.686218,399.996094 786.898438,398.549896 787.507385,393.119080 
	C787.840149,390.151367 786.809021,389.012909 783.945679,389.522186 
	C780.844910,390.073700 777.759155,390.709473 774.025757,391.398102 
M551.925720,161.533798 
	C553.238159,164.208420 554.878601,165.286469 557.789917,163.348114 
	C560.693665,161.414734 559.481995,159.376770 558.233154,157.408829 
	C555.518005,153.130249 552.642883,148.953156 549.842896,144.749207 
	C546.727173,145.998184 544.174133,147.045624 542.439514,149.838562 
	C546.196167,153.073669 549.418091,156.578110 551.925720,161.533798 
M603.027161,137.461517 
	C604.063538,138.724731 604.522766,140.458725 606.453918,141.469849 
	C608.164551,140.684647 610.270874,140.216690 611.481201,137.990479 
	C609.299011,132.989914 605.231323,128.979584 604.813599,123.161781 
	C600.480408,124.162827 596.707886,124.251671 593.042419,126.163048 
	C596.973328,129.489090 600.147095,132.880478 603.027161,137.461517 
M362.933990,246.615982 
	C360.057037,246.461960 357.324402,244.730194 353.912659,245.710663 
	C356.091278,250.814163 358.158417,255.656479 360.569519,261.304504 
	C364.082153,256.885040 366.962982,253.260498 369.717041,249.795441 
	C368.097443,247.003693 365.690460,247.398193 362.933990,246.615982 
M524.553345,162.094269 
	C522.094543,162.948471 519.546204,163.681473 518.293823,166.656723 
	C521.520020,169.289841 522.958740,173.005524 524.817932,176.468353 
	C525.575134,177.878830 526.416748,179.811584 528.454224,178.974060 
	C530.317993,178.207947 530.889893,176.285156 530.386108,174.357666 
	C529.262390,170.058243 528.057800,165.768097 524.553345,162.094269 
M535.457764,155.313751 
	C533.577393,153.714920 532.467407,155.219818 531.336609,156.388550 
	C530.341858,157.416763 530.753113,158.483185 531.419861,159.531952 
	C533.718689,163.147934 535.948608,166.808975 538.309265,170.383820 
	C539.248840,171.806580 540.592651,173.027817 542.440857,171.975739 
	C544.332886,170.898712 543.752258,169.121552 543.108704,167.590347 
	C541.307068,163.304214 538.621643,159.543076 535.457764,155.313751 
M758.765442,344.348755 
	C756.969727,344.508698 755.118408,344.548553 754.108276,346.420563 
	C758.953857,354.870239 763.230042,355.700897 770.977234,349.620697 
	C767.787598,346.419098 763.860657,344.954651 758.765442,344.348755 
M627.004456,135.835129 
	C626.415527,129.319992 617.665588,121.141487 611.660156,122.021530 
	C614.517761,127.917465 619.873596,131.500015 623.697876,136.305740 
	C624.284302,137.042648 625.567749,136.681198 627.004456,135.835129 
M263.917206,659.541077 
	C259.274719,657.685303 255.459229,653.691833 249.930817,654.026489 
	C254.768875,659.679199 260.859009,662.788269 268.334290,664.216309 
	C267.967438,661.278198 265.979248,660.855225 263.917206,659.541077 
M407.717499,440.031799 
	C409.142059,438.933472 410.768524,437.902100 409.673615,435.698395 
	C409.302582,434.951599 408.649963,434.319550 407.754089,434.465149 
	C405.636536,434.809326 405.807770,436.843475 405.262146,438.242798 
	C404.604340,439.929718 405.356964,440.726013 407.717499,440.031799 
M501.596222,196.801880 
	C501.061157,193.209183 498.152039,193.186371 494.363403,191.990112 
	C496.944153,194.976471 497.721313,198.034927 501.596222,196.801880 
z"/>
<path fill="#000000" opacity="1.000000" stroke="none" 
	d="
M119.636368,496.998993 
	C118.976593,463.433960 122.287636,430.695312 128.964096,398.377289 
	C139.510468,347.326721 160.242310,300.586151 189.830246,257.668579 
	C212.272385,225.116058 239.586807,197.352127 270.999756,173.515869 
	C313.564575,141.217545 360.506989,117.920448 412.314423,104.416695 
	C438.481415,97.596199 464.983337,93.353394 491.939056,91.561142 
	C500.854553,90.968361 509.721649,89.629089 518.650269,89.927788 
	C519.044800,92.288437 517.365967,92.426018 516.285950,92.944763 
	C508.868805,96.507248 503.575928,102.049515 500.930145,109.847458 
	C499.863464,112.991211 498.247009,114.421333 494.826355,114.367447 
	C490.299805,114.296150 485.630981,114.962242 481.776093,117.246964 
	C472.239746,122.898949 461.491364,123.359772 451.062225,125.111000 
	C420.182617,130.296188 390.524506,139.452240 361.826233,151.882248 
	C324.913208,167.870255 292.179382,190.342865 262.279114,216.945267 
	C242.931351,234.159103 226.347382,253.932343 211.615005,275.295868 
	C188.319168,309.077332 171.058945,345.627960 160.344559,385.221497 
	C154.161560,408.069916 150.335999,431.363556 148.109390,454.928467 
	C145.751923,479.878632 145.760178,504.927032 148.679535,529.703552 
	C152.189316,559.491211 159.095551,588.662659 170.570023,616.595337 
	C193.604309,672.668518 226.496689,721.717163 273.038025,761.084229 
	C279.519073,766.566162 286.230011,771.785950 292.983704,776.931274 
	C295.977386,779.212036 296.707672,781.603333 295.304901,785.109680 
	C292.544586,792.009094 290.555573,799.228516 286.374512,806.868591 
	C180.908691,730.010498 124.325096,627.814270 119.636368,496.998993 
z"/>
<path fill="#000000" opacity="1.000000" stroke="none" 
	d="
M697.119507,146.980530 
	C685.612854,143.419022 674.497437,139.922256 662.932373,138.193726 
	C659.734619,137.715805 657.594360,136.356735 656.441711,133.006622 
	C654.139038,126.313751 649.751892,120.773048 645.624084,115.122971 
	C644.771729,113.956177 643.265320,113.166458 643.431458,111.410873 
	C644.332397,110.593559 645.322937,110.857750 646.269714,111.172783 
	C671.601807,119.601479 696.135559,129.581268 718.658630,144.347382 
	C744.955444,161.587524 769.971008,180.533279 791.965393,202.842346 
	C830.163452,241.587158 858.983459,286.761444 879.379639,337.302765 
	C892.937439,370.898712 901.445251,405.724579 904.883789,441.693146 
	C907.499756,469.057373 907.763489,496.476837 905.667847,524.002502 
	C902.234009,569.105469 890.145813,611.765015 871.225769,652.549622 
	C855.865356,685.661072 836.117859,716.014893 811.655518,743.279175 
	C794.117432,762.826050 775.184082,780.740967 753.799988,796.017395 
	C752.479980,796.960266 751.384583,798.364685 749.147034,798.295959 
	C748.039673,796.226990 748.812195,793.881958 748.738464,791.671875 
	C748.505554,784.689148 749.290649,777.653931 747.836426,770.739014 
	C747.166138,767.551941 748.913818,765.817749 751.039246,764.025940 
	C773.696899,744.924683 793.661987,723.298950 810.852417,699.185669 
	C833.133484,667.931702 850.638306,634.200989 862.744324,597.700134 
	C870.527405,574.233459 875.902283,550.206787 878.404480,525.680115 
	C880.717407,503.007812 881.206482,480.274414 879.036377,457.412231 
	C876.733643,433.153534 873.239624,409.161804 866.663147,385.761383 
	C850.763611,329.187988 822.918396,279.105743 783.664673,235.314789 
	C766.659302,216.343811 747.428833,199.985916 726.789673,185.200912 
	C724.627930,183.652390 723.581970,182.116104 723.817932,179.483505 
	C723.995422,177.502930 723.827942,175.487808 723.763062,173.489731 
	C723.449524,163.841217 719.370361,156.600510 710.426819,152.348328 
	C706.212402,150.344589 702.045654,148.265335 697.119507,146.980530 
z"/>
<path fill="#000000" opacity="1.000000" stroke="none" 
	d="
M808.127380,863.979370 
	C804.020874,868.609558 799.533813,871.292236 793.439453,869.533936 
	C786.758850,867.606628 782.207886,861.763184 783.052429,856.203186 
	C783.981750,850.085144 791.384338,842.942871 796.874878,842.866760 
	C803.488525,842.774963 810.105408,848.639099 810.935852,855.331848 
	C811.329163,858.501526 810.082520,861.164001 808.127380,863.979370 
z"/>
<path fill="#000000" opacity="1.000000" stroke="none" 
	d="
M230.123581,843.604126 
	C238.227325,844.056946 243.722229,849.153076 244.088821,856.144531 
	C244.388474,861.859375 238.646042,868.838562 232.569229,870.144897 
	C226.090469,871.537659 219.121338,866.303772 217.892563,859.113342 
	C216.710587,852.196655 222.382339,843.181824 230.123581,843.604126 
z"/>
<path fill="#000000" opacity="1.000000" stroke="none" 
	d="
M841.833374,915.213501 
	C834.924988,917.687744 828.445496,918.241821 822.337708,914.179321 
	C816.468140,910.275269 816.834961,903.270874 823.272461,900.405273 
	C829.632568,897.573975 836.459595,897.820496 842.715271,900.471558 
	C849.719604,903.440002 849.311768,909.729553 841.833374,915.213501 
z"/>
<path fill="#000000" opacity="1.000000" stroke="none" 
	d="
M177.744919,909.315613 
	C177.951050,903.422546 181.328781,899.617615 187.233231,898.910767 
	C190.830490,898.480042 194.528091,898.576782 198.157074,898.807312 
	C201.953690,899.048584 204.679871,901.125671 205.931274,904.806763 
	C207.177475,908.472595 205.408417,911.210693 202.973648,913.694702 
	C197.097855,919.689148 181.456848,918.209717 177.744919,909.315613 
z"/>
<path fill="#000000" opacity="1.000000" stroke="none" 
	d="
M204.161499,495.796204 
	C199.342590,502.975311 192.474457,504.042114 185.054581,503.135071 
	C181.409714,502.689545 179.388718,499.858948 178.157425,496.629761 
	C176.949509,493.461945 178.165939,490.793762 180.384781,488.495148 
	C185.907547,482.773926 196.071838,482.122894 202.245331,487.163757 
	C204.932800,489.358185 206.242126,492.034302 204.161499,495.796204 
z"/>
<path fill="#000000" opacity="1.000000" stroke="none" 
	d="
M826.727600,490.123047 
	C829.451233,485.872437 833.150940,483.851227 837.720215,483.764740 
	C842.105103,483.681732 845.871338,485.246216 848.130676,489.291565 
	C849.784241,492.252197 849.173340,495.104767 847.131653,497.613892 
	C844.121155,501.313568 840.220947,503.373688 835.384705,502.667358 
	C828.849060,501.712891 825.041138,496.276764 826.727600,490.123047 
z"/>
<path fill="#000000" opacity="1.000000" stroke="none" 
	d="
M496.853638,605.089844 
	C494.552216,602.683044 495.030670,599.669495 496.156372,597.421143 
	C498.507294,592.725586 501.577026,588.386292 504.414734,583.941040 
	C504.966125,583.077332 505.925690,582.501648 506.961670,583.136108 
	C507.915039,583.720032 508.237335,584.881592 507.694733,585.753723 
	C505.332306,589.551208 506.462067,594.986145 501.660126,597.788086 
	C500.445099,598.497009 498.428864,600.656128 499.304657,602.792053 
	C500.555634,605.842834 497.450287,603.973328 496.853638,605.089844 
z"/>
<path fill="#000000" opacity="1.000000" stroke="none" 
	d="
M591.075745,477.192566 
	C585.720215,477.623688 580.730896,477.670959 575.010437,477.138428 
	C579.201477,468.883545 587.428833,466.444336 595.054504,462.485687 
	C598.585083,466.254181 604.796692,466.988159 610.370239,470.856750 
	C605.522339,477.880920 597.988770,476.198547 591.075745,477.192566 
z"/>
<path fill="#000000" opacity="1.000000" stroke="none" 
	d="
M720.049072,432.098389 
	C717.447327,433.845184 715.163330,435.432831 712.025635,435.687225 
	C723.665955,424.938080 735.306213,414.188934 746.913513,403.470245 
	C748.204407,404.895813 748.343445,406.257263 745.746094,409.016113 
	C739.516602,415.633179 734.219360,423.239075 726.046204,427.856750 
	C724.028870,428.996552 722.242310,430.544830 720.049072,432.098389 
z"/>
<path fill="#000000" opacity="1.000000" stroke="none" 
	d="
M691.089478,446.344421 
	C690.402405,444.547638 692.184814,442.272705 688.657593,441.409119 
	C693.020569,439.300262 693.141174,442.476654 693.733826,444.274292 
	C694.329041,446.079590 693.938232,447.741608 691.089478,446.344421 
z"/>
<path fill="#000000" opacity="1.000000" stroke="none" 
	d="
M623.302124,835.718262 
	C619.742615,835.230469 616.615967,834.705139 613.468994,834.511841 
	C609.521423,834.269348 609.346741,831.548401 609.824402,828.846252 
	C610.346008,825.895691 607.723267,821.854126 613.424744,820.559692 
	C636.993530,815.208740 659.807617,807.443542 682.113831,798.163635 
	C685.468384,796.768188 688.793579,795.223267 692.722656,794.917114 
	C694.860535,798.654175 694.164978,802.727173 694.138245,806.594604 
	C694.100525,812.034668 696.337952,818.351990 693.277283,822.686707 
	C690.378845,826.791687 683.885315,827.151917 679.122986,829.487488 
	C669.548584,834.182922 658.690857,835.532837 649.384155,841.015320 
	C647.207275,842.297729 644.465942,841.209473 642.105225,840.355042 
	C636.135315,838.194275 629.950867,836.936768 623.302124,835.718262 
z"/>
<path fill="#000000" opacity="1.000000" stroke="none" 
	d="
M615.570801,182.657684 
	C613.501038,181.859665 611.723145,181.330673 610.127930,180.465088 
	C604.202393,177.249908 603.945801,173.304260 609.302551,169.054703 
	C611.727539,167.130951 614.584900,166.132767 617.581238,165.856628 
	C622.759216,165.379425 627.361206,169.505585 627.358154,174.339188 
	C627.355042,179.292114 622.464294,182.906326 615.570801,182.657684 
z"/>
<path fill="#000000" opacity="1.000000" stroke="none" 
	d="
M468.371368,844.949219 
	C468.238068,848.512634 468.893005,851.674683 467.601654,854.930359 
	C466.687561,854.685486 465.880371,854.720337 465.520874,854.336121 
	C457.096130,845.333740 445.792297,841.626526 434.705811,837.539673 
	C429.597534,835.656555 429.412781,835.261108 432.349426,830.624695 
	C438.546692,820.840454 438.543610,820.852844 449.999176,823.639648 
	C454.525818,824.740845 459.042603,825.912109 463.614227,826.789062 
	C466.914886,827.422180 468.566589,828.891418 468.370880,832.473572 
	C468.153229,836.457031 468.350586,840.463257 468.371368,844.949219 
z"/>
<path fill="#000000" opacity="1.000000" stroke="none" 
	d="
M284.663635,254.674820 
	C294.006897,245.966476 304.540131,243.194443 316.230499,247.554993 
	C328.542023,252.147232 334.613098,262.103729 334.839569,274.650085 
	C335.062164,286.980438 330.064087,297.442230 318.222870,303.204315 
	C304.568817,309.848511 291.386108,307.396027 283.643829,297.024170 
	C273.306519,283.175873 273.594330,267.282074 284.663635,254.674820 
M310.126862,290.787445 
	C311.056549,290.432709 312.025940,290.156525 312.909485,289.710388 
	C318.273224,287.001892 322.248260,280.158966 321.575653,274.074982 
	C320.888550,267.859650 318.557587,262.446075 312.171112,259.992065 
	C305.814423,257.549530 298.103760,259.703918 293.631165,264.977203 
	C288.872681,270.587555 288.208282,277.803589 291.890869,283.878662 
	C295.596436,289.991669 301.818817,292.558655 310.126862,290.787445 
z"/>
<path fill="#000000" opacity="1.000000" stroke="none" 
	d="
M313.243591,273.264954 
	C313.665466,277.257660 312.174286,280.101929 308.879669,281.144653 
	C305.327850,282.268829 301.571350,281.880432 298.610840,279.162598 
	C296.454010,277.182495 297.445404,274.836029 298.547180,272.789734 
	C300.317596,269.501587 303.002533,267.377014 306.968842,267.882477 
	C309.957977,268.263458 312.186859,269.864319 313.243591,273.264954 
z"/>
</svg>